<?xml version="1.0" standalone="no"?>
<!DOCTYPE svg PUBLIC "-//W3C//DTD SVG 20010904//EN"
 "http://www.w3.org/TR/2001/REC-SVG-20010904/DTD/svg10.dtd">
<svg version="1.0" xmlns="http://www.w3.org/2000/svg"
 width="226.000000pt" height="226.000000pt" viewBox="0 0 226.000000 226.000000"
 preserveAspectRatio="xMidYMid meet">
<metadata>
Created by potrace 1.14, written by Peter Selinger 2001-2017
</metadata>
<g transform="translate(0.000000,226.000000) scale(0.100000,-0.100000)"
fill="#000000" stroke="none">
<path d="M995 2250 c-4 -6 -10 -8 -14 -5 -5 2 -6 -6 -4 -18 4 -27 -8 -46 -33
-51 -38 -8 -77 -27 -106 -51 -16 -14 -34 -25 -40 -25 -26 0 -143 -147 -155
-195 -33 -137 -37 -179 -22 -251 8 -41 12 -77 7 -82 -4 -4 -9 -23 -12 -42 -9
-75 -20 -82 -131 -86 -38 -1 -77 -4 -85 -7 -8 -2 -30 -8 -47 -12 -18 -4 -33
-11 -33 -16 0 -5 -6 -9 -13 -9 -7 0 -31 -18 -53 -40 -48 -47 -65 -107 -68
-241 0 -52 -6 -88 -13 -94 -15 -12 -61 -146 -57 -166 2 -8 6 -30 10 -49 10
-56 42 -108 83 -136 38 -25 39 -26 38 -85 -1 -32 -5 -59 -9 -59 -5 0 -8 -7 -8
-15 0 -8 -6 -15 -12 -16 -45 -2 -72 -10 -98 -29 -43 -31 -100 -104 -100 -128
0 -23 44 -52 77 -52 10 0 38 -14 63 -30 25 -16 50 -30 55 -30 6 0 21 -6 35
-13 14 -7 48 -21 75 -31 28 -11 58 -25 69 -32 10 -7 24 -10 32 -7 7 3 39 -10
71 -28 32 -18 92 -49 133 -70 l74 -37 19 31 c26 43 58 72 66 60 12 -17 76 -51
146 -76 58 -20 91 -25 187 -26 104 -2 122 1 177 23 61 26 100 31 136 17 32
-13 49 -3 80 46 49 78 74 103 105 103 21 0 30 7 40 30 7 16 21 40 32 52 26 30
78 105 78 113 0 4 14 26 30 50 17 24 30 48 30 53 0 5 18 34 40 66 22 31 40 59
40 62 0 3 -9 17 -19 30 -16 21 -18 30 -9 54 5 17 14 30 18 30 4 0 15 17 25 38
28 62 39 82 47 82 5 0 8 7 8 15 0 8 5 15 11 15 5 0 7 5 4 10 -3 6 -1 10 5 10
6 0 9 4 6 9 -11 17 25 21 59 7 30 -13 36 -12 64 7 28 20 90 123 99 166 2 9 5
68 8 131 4 86 2 119 -8 130 -7 9 -49 44 -93 80 -44 35 -82 67 -85 70 -15 18
-259 147 -285 152 -24 4 -43 27 -49 60 -3 12 -5 23 -6 23 -1 0 -3 15 -6 34 -2
19 -15 59 -29 89 -14 30 -25 61 -25 69 0 8 -4 11 -10 8 -5 -3 -10 0 -10 9 0 8
5 16 11 18 16 5 14 58 -1 68 -8 5 -25 7 -39 6 -18 -2 -37 8 -65 35 -47 46
-177 120 -220 125 -17 2 -50 10 -73 19 -24 8 -73 15 -110 16 -38 1 -74 6 -81
12 -19 15 -50 19 -57 7z"/>
</g>
</svg>
